<?xml version="1.0" encoding="UTF-8" standalone="no"?><!DOCTYPE svg PUBLIC "-//W3C//DTD SVG 1.1//EN" "http://www.w3.org/Graphics/SVG/1.1/DTD/svg11.dtd"><svg width="100%" height="100%" viewBox="0 0 24 24" version="1.1" xmlns="http://www.w3.org/2000/svg" xmlns:xlink="http://www.w3.org/1999/xlink" xml:space="preserve" xmlns:serif="http://www.serif.com/" style="fill-rule:evenodd;clip-rule:evenodd;stroke-linejoin:round;stroke-miterlimit:2;"><path d="M19.5,2.5L19.5,0.5L14.5,0.5L14.5,2.5L0.5,2.5L0.5,23.5L21.5,23.5L21.5,9.5L23.5,9.5L23.5,4.5L21.5,4.5C21.5,4.5 21.5,2.5 21.5,2.5L19.5,2.5Z" style="fill:#fff;fill-opacity:0.2;"/><path d="M18,2L16,2L16,4L18,4L18,2ZM2,4L10,4L10,6L4,6L4,20L18,20L18,14L20,14L20,22L2,22L2,4ZM8,12L6,12L6,18L12,18L12,16L14,16L14,14L12,14L12,16L8,16L8,12ZM12,10L10,10L10,12L8,12L8,10L10,10L10,8L12,8L12,6L14,6L14,8L12,8L12,10ZM14,4L16,4L16,6L14,6L14,4ZM18,4L20,4L20,6L22,6L22,8L20,8L20,10L18,10L18,12L16,12L16,10L18,10L18,8L20,8L20,6L18,6L18,4ZM14,12L16,12L16,14L14,14L14,12Z" style="fill-rule:nonzero;"/></svg>