<?xml version="1.0" encoding="UTF-8" standalone="no"?><!DOCTYPE svg PUBLIC "-//W3C//DTD SVG 1.1//EN" "http://www.w3.org/Graphics/SVG/1.1/DTD/svg11.dtd"><svg width="100%" height="100%" viewBox="0 0 24 24" version="1.1" xmlns="http://www.w3.org/2000/svg" xmlns:xlink="http://www.w3.org/1999/xlink" xml:space="preserve" xmlns:serif="http://www.serif.com/" style="fill-rule:evenodd;clip-rule:evenodd;stroke-linejoin:round;stroke-miterlimit:2;"><rect x="2.5" y="4.5" width="19" height="15" style="fill:#fff;fill-opacity:0.2;"/><path d="M6,6L4,6L4,8L6,8L6,6ZM20,6L8,6L8,8L20,8L20,6ZM4,11L6,11L6,13L4,13L4,11ZM20,11L8,11L8,13L20,13L20,11ZM4,16L6,16L6,18L4,18L4,16ZM20,16L8,16L8,18L20,18L20,16Z" style="fill-rule:nonzero;"/></svg>