<?xml version="1.0" encoding="UTF-8" standalone="no"?><!DOCTYPE svg PUBLIC "-//W3C//DTD SVG 1.1//EN" "http://www.w3.org/Graphics/SVG/1.1/DTD/svg11.dtd"><svg width="100%" height="100%" viewBox="0 0 24 24" version="1.1" xmlns="http://www.w3.org/2000/svg" xmlns:xlink="http://www.w3.org/1999/xlink" xml:space="preserve" xmlns:serif="http://www.serif.com/" style="fill-rule:evenodd;clip-rule:evenodd;stroke-linejoin:round;stroke-miterlimit:2;"><path d="M3.551,6.215L0,6.215L0,22.224L19.561,22.224L19.561,18.673L24,18.673L24,1.776L3.551,1.776L3.551,6.215Z" style="fill:#fff;fill-opacity:0.2;"/><path d="M22.654,3.122L4.897,3.122L4.897,17.327L22.654,17.327L22.654,3.122ZM6.673,15.551L6.673,4.897L20.878,4.897L20.878,15.551L6.673,15.551ZM3.122,7.561L1.346,7.561L1.346,20.878L18.215,20.878L18.215,19.103L3.122,19.103L3.122,7.561ZM10.224,6.673L8.449,6.673L8.449,8.449L10.224,8.449L10.224,10.224L12,10.224L12,12L15.551,12L15.551,10.224L17.327,10.224L17.327,8.449L19.103,8.449L19.103,6.673L17.327,6.673L17.327,8.449L15.551,8.449L15.551,10.224L12,10.224L12,8.449L10.224,8.449L10.224,6.673Z" style="fill-rule:nonzero;"/></svg>
