<?xml version="1.0" encoding="UTF-8" standalone="no"?><!DOCTYPE svg PUBLIC "-//W3C//DTD SVG 1.1//EN" "http://www.w3.org/Graphics/SVG/1.1/DTD/svg11.dtd"><svg width="100%" height="100%" viewBox="0 0 24 24" version="1.1" xmlns="http://www.w3.org/2000/svg" xmlns:xlink="http://www.w3.org/1999/xlink" xml:space="preserve" xmlns:serif="http://www.serif.com/" style="fill-rule:evenodd;clip-rule:evenodd;stroke-linejoin:round;stroke-miterlimit:2;"><path d="M15.5,2.5L15.5,0.5L4.5,0.5L4.5,2.5L2.5,2.5L2.5,4.5L0.5,4.5L0.5,15.5L2.5,15.5L2.5,17.5L4.5,17.5L4.5,19.5L16.5,19.5L16.5,21.5L18.5,21.5L18.5,23.5L23.5,23.5L23.5,18.5L21.5,18.5C21.5,18.5 21.5,16.5 21.5,16.5L19.5,16.5L19.5,4.5L17.5,4.5L17.5,2.5L15.5,2.5Z" style="fill:#fff;fill-opacity:0.2;"/><path d="M6,2L14,2L14,4L6,4L6,2ZM4,6L4,4L6,4L6,6L4,6ZM4,14L2,14L2,6L4,6L4,14ZM6,16L4,16L4,14L6,14L6,16ZM14,16L14,18L6,18L6,16L14,16ZM16,14L14,14L14,16L16,16L16,18L18,18L18,20L20,20L20,22L22,22L22,20L20,20L20,18L18,18L18,16L16,16L16,14ZM16,6L18,6L18,14L16,14L16,6ZM16,6L16,4L14,4L14,6L16,6Z" style="fill-rule:nonzero;"/></svg>